<svg width="24" height="24" viewBox="0 0 24 24" fill="none" xmlns="http://www.w3.org/2000/svg">
<g clip-path="url(#clip0_682_8672)">
<path fill-rule="evenodd" clip-rule="evenodd" d="M19.3337 6.77658C19.3869 6.83487 19.4554 6.87944 19.5326 6.90173C20.645 7.15627 21.6267 7.80708 22.2943 8.73258C22.955 9.64945 23.2494 10.7801 23.1197 11.9027C22.99 13.0254 22.4455 14.0591 21.5931 14.8012C20.5526 15.72 19.123 16.1885 17.5 17C16.5 17.5 16 17.5 15.892 16.3794C15.8198 15.6305 15.8571 15.4761 15.8571 14.4532C15.8571 13.4302 15.4508 12.4491 14.7274 11.7257C14.0041 11.0024 13.023 10.596 12 10.596C10.977 10.596 9.99594 11.0024 9.27259 11.7257C8.54923 12.4491 8.14286 13.4302 8.14286 14.4532C8.14286 15.4761 8.5 16 8.5 16.5C8.5 17 7.94354 16.9484 7.5 16.824C5.84914 16.3612 3.76286 15.552 2.72571 14.664C2.18544 14.2035 1.74238 13.6399 1.42242 13.0062C1.10247 12.3725 0.912049 11.6813 0.862286 10.9732C0.815061 10.2663 0.909632 9.55718 1.14044 8.88743C1.37125 8.21767 1.73363 7.60083 2.20629 7.07315C2.68114 6.54173 3.25714 6.1063 3.90343 5.79258C4.55069 5.47795 5.25276 5.29167 5.97086 5.24401C6.04468 5.24549 6.11746 5.22639 6.18104 5.18885C6.24462 5.1513 6.2965 5.0968 6.33086 5.03144C6.83248 3.61369 7.80715 2.412 9.09086 1.62858C10.3839 0.838965 11.9047 0.506867 13.4092 0.685635C14.9136 0.864403 16.3143 1.54366 17.3863 2.6143C18.4416 3.67746 19.0948 5.07422 19.2343 6.56573C19.2456 6.64455 19.2795 6.71839 19.332 6.7783L19.3337 6.77658Z" fill="#1AC1A8" fill-opacity="0.5"/>
<path fill-rule="evenodd" clip-rule="evenodd" d="M6 6.00914L6.06343 6.01086C6.89143 6.01086 7.70229 6.28514 8.37429 6.70686C9.06 7.13543 9.51943 7.66171 9.71143 8.06971C9.83871 8.31555 10.0562 8.50258 10.3183 8.59161C10.5805 8.68064 10.8669 8.66475 11.1175 8.54728C11.3682 8.42982 11.5637 8.21988 11.663 7.96148C11.7623 7.70308 11.7578 7.41626 11.6503 7.16114C11.2423 6.292 10.4537 5.48114 9.51086 4.88971C8.83767 4.46717 8.09556 4.16603 7.31829 4C6.90082 4.54302 6.57217 5.14884 6.34457 5.79486C6.31285 5.8588 6.264 5.91269 6.20347 5.95052C6.14294 5.98836 6.07309 6.00865 6.00171 6.00914H6Z" fill="#1AC1A9"/>
<path fill-rule="evenodd" clip-rule="evenodd" d="M11.8131 23.916C11.9845 23.9589 12.1628 23.9589 12.3325 23.916C13.4245 23.6435 14.4583 22.9852 15.2194 22.224C15.9463 21.4955 16.6183 20.4755 16.6183 19.404C16.6185 19.241 16.5815 19.0802 16.5101 18.9336C16.4387 18.7871 16.3349 18.6587 16.2064 18.5584C16.078 18.4581 15.9283 18.3883 15.7689 18.3546C15.6094 18.3208 15.4444 18.3238 15.2863 18.3635L13.7143 18.7578V14.4515C13.7143 13.9968 13.5336 13.5608 13.2122 13.2393C12.8907 12.9178 12.4546 12.7372 12 12.7372C11.5453 12.7372 11.1093 12.9178 10.7878 13.2393C10.4663 13.5608 10.2857 13.9968 10.2857 14.4515V18.72L8.8594 18.3635C8.70144 18.3239 8.53653 18.3208 8.3772 18.3545C8.21788 18.3882 8.06832 18.4577 7.93991 18.5579C7.8115 18.658 7.70761 18.7861 7.63613 18.9325C7.56465 19.0788 7.52747 19.2395 7.5274 19.4023C7.5274 20.4738 8.19941 21.4938 8.92798 22.2223C9.68912 22.9835 10.7211 23.6418 11.8131 23.9143V23.916Z" fill="#1AC1A9"/>
</g>
<defs>
<clipPath id="clip0_682_8672">
<rect width="24" height="24" fill="white"/>
</clipPath>
</defs>
</svg>
